<svg width="79" height="16" viewBox="0 0 79 16" fill="none" xmlns="http://www.w3.org/2000/svg">
<path d="M0.201172 0.859375H5.72852C6.7832 0.859375 7.69141 1.0612 8.45312 1.46484C9.22135 1.86198 9.80404 2.42188 10.2012 3.14453C10.5983 3.86719 10.7969 4.69727 10.7969 5.63477C10.7969 6.57878 10.5918 7.40885 10.1816 8.125C9.77799 8.83464 9.1888 9.39128 8.41406 9.79492C7.64583 10.1921 6.72786 10.3906 5.66016 10.3906H2.10547V8.02734H5.20117C5.76758 8.02734 6.24284 7.92969 6.62695 7.73438C7.01758 7.53255 7.30729 7.2526 7.49609 6.89453C7.6849 6.53646 7.7793 6.11654 7.7793 5.63477C7.7793 5.15299 7.6849 4.73633 7.49609 4.38477C7.30729 4.02669 7.01758 3.75326 6.62695 3.56445C6.24284 3.36914 5.76432 3.27148 5.19141 3.27148H3.13086V15H0.201172V0.859375ZM24.5918 7.92969C24.5918 9.42708 24.3053 10.7259 23.7324 11.8262C23.166 12.9199 22.3815 13.7565 21.3789 14.3359C20.3828 14.9089 19.2533 15.1953 17.9902 15.1953C16.7272 15.1953 15.5944 14.9089 14.5918 14.3359C13.5957 13.7565 12.8112 12.9167 12.2383 11.8164C11.6719 10.7161 11.3887 9.42057 11.3887 7.92969C11.3887 6.41927 11.6719 5.11719 12.2383 4.02344C12.8112 2.92969 13.5957 2.09635 14.5918 1.52344C15.5944 0.950521 16.7272 0.664062 17.9902 0.664062C19.2533 0.664062 20.3828 0.950521 21.3789 1.52344C22.3815 2.09635 23.166 2.92969 23.7324 4.02344C24.3053 5.11719 24.5918 6.41927 24.5918 7.92969ZM21.623 7.92969C21.623 6.93359 21.4733 6.08724 21.1738 5.39062C20.8809 4.69401 20.4609 4.16667 19.9141 3.80859C19.3737 3.44401 18.7324 3.26172 17.9902 3.26172C17.2546 3.26172 16.6133 3.44401 16.0664 3.80859C15.526 4.16667 15.1061 4.69401 14.8066 5.39062C14.5072 6.08724 14.3574 6.93359 14.3574 7.92969C14.3574 8.92578 14.5072 9.77214 14.8066 10.4688C15.1061 11.1654 15.526 11.696 16.0664 12.0605C16.6133 12.4186 17.2546 12.5977 17.9902 12.5977C18.7324 12.5977 19.3737 12.4186 19.9141 12.0605C20.4609 11.696 20.8809 11.1654 21.1738 10.4688C21.4733 9.77214 21.623 8.92578 21.623 7.92969ZM29.334 0.859375L33.2695 10.4395H33.4355L37.3613 0.859375H40.9844V15H38.1328V5.73242H38.0156L34.3242 14.9316H32.3613L28.6797 5.71289H28.5625V15H25.7207V0.859375H29.334ZM43.6855 15V12.4805H47.2305C48.1419 12.4805 48.9004 12.3177 49.5059 11.9922C50.1113 11.6667 50.5671 11.1686 50.873 10.498C51.179 9.82096 51.332 8.96159 51.332 7.91992C51.332 6.87826 51.179 6.02214 50.873 5.35156C50.5736 4.67448 50.1211 4.17643 49.5156 3.85742C48.9102 3.53841 48.1549 3.37891 47.25 3.37891H43.6172V0.859375H47.3965C48.8158 0.859375 50.0397 1.14258 51.0684 1.70898C52.1035 2.26888 52.8945 3.07943 53.4414 4.14062C53.9948 5.20182 54.2715 6.46159 54.2715 7.91992C54.2715 9.38477 53.9948 10.6478 53.4414 11.709C52.888 12.7702 52.0905 13.584 51.0488 14.1504C50.0137 14.7168 48.7832 15 47.3574 15H43.6855ZM45.3066 15H42.377V0.859375H45.3066V15ZM68.3301 7.92969C68.3301 9.42708 68.0436 10.7259 67.4707 11.8262C66.9043 12.9199 66.1198 13.7565 65.1172 14.3359C64.1211 14.9089 62.9915 15.1953 61.7285 15.1953C60.4655 15.1953 59.3327 14.9089 58.3301 14.3359C57.334 13.7565 56.5495 12.9167 55.9766 11.8164C55.4102 10.7161 55.127 9.42057 55.127 7.92969C55.127 6.41927 55.4102 5.11719 55.9766 4.02344C56.5495 2.92969 57.334 2.09635 58.3301 1.52344C59.3327 0.950521 60.4655 0.664062 61.7285 0.664062C62.9915 0.664062 64.1211 0.950521 65.1172 1.52344C66.1198 2.09635 66.9043 2.92969 67.4707 4.02344C68.0436 5.11719 68.3301 6.41927 68.3301 7.92969ZM65.3613 7.92969C65.3613 6.93359 65.2116 6.08724 64.9121 5.39062C64.6191 4.69401 64.1992 4.16667 63.6523 3.80859C63.112 3.44401 62.4707 3.26172 61.7285 3.26172C60.9928 3.26172 60.3516 3.44401 59.8047 3.80859C59.2643 4.16667 58.8444 4.69401 58.5449 5.39062C58.2454 6.08724 58.0957 6.93359 58.0957 7.92969C58.0957 8.92578 58.2454 9.77214 58.5449 10.4688C58.8444 11.1654 59.2643 11.696 59.8047 12.0605C60.3516 12.4186 60.9928 12.5977 61.7285 12.5977C62.4707 12.5977 63.112 12.4186 63.6523 12.0605C64.1992 11.696 64.6191 11.1654 64.9121 10.4688C65.2116 9.77214 65.3613 8.92578 65.3613 7.92969ZM69.459 0.859375H72.3887V12.5781H78.4727V15H69.459V0.859375Z" fill="black"/>
</svg>
